<svg width="375" height="696" viewBox="0 0 375 696" fill="none" xmlns="http://www.w3.org/2000/svg">
<g clip-path="url(#clip0_2072_395)">
<g clip-path="url(#clip1_2072_395)">
<path d="M89.4769 197.917L102.095 198.731C103.169 198.8 104.18 198.216 104.657 197.251L110.261 185.917M99.1196 209.285L115.285 199.952C116.561 199.215 116.998 197.584 116.261 196.309L109.595 184.762C108.858 183.487 107.228 183.05 105.952 183.786L89.7863 193.119C88.5108 193.856 88.0738 195.487 88.8102 196.762L95.4769 208.309C96.2132 209.584 97.8442 210.021 99.1196 209.285Z" stroke="currentColor" stroke-width="2" stroke-linecap="round" stroke-linejoin="round"/>
</g>
<g clip-path="url(#clip2_2072_395)">
<path d="M64.2614 357.701L76.8796 358.515C77.9539 358.584 78.9645 358.001 79.4417 357.036L85.046 345.701M73.9041 369.07L90.07 359.736C91.3454 359 91.7824 357.369 91.046 356.094L84.3794 344.547C83.643 343.271 82.0121 342.834 80.7366 343.571L64.5708 352.904C63.2954 353.64 62.8584 355.271 63.5947 356.547L70.2614 368.094C70.9978 369.369 72.6287 369.806 73.9041 369.07Z" stroke="currentColor" stroke-width="2" stroke-linecap="round" stroke-linejoin="round"/>
</g>
<g clip-path="url(#clip3_2072_395)">
<path d="M258.261 425.701L270.88 426.515C271.954 426.584 272.965 426.001 273.442 425.036L279.046 413.701M267.904 437.07L284.07 427.736C285.345 427 285.782 425.369 285.046 424.094L278.379 412.547C277.643 411.271 276.012 410.834 274.737 411.571L258.571 420.904C257.295 421.64 256.858 423.271 257.595 424.547L264.261 436.094C264.998 437.369 266.629 437.806 267.904 437.07Z" stroke="currentColor" stroke-width="2" stroke-linecap="round" stroke-linejoin="round"/>
</g>
<g clip-path="url(#clip4_2072_395)">
<path d="M194.261 625.701L206.88 626.515C207.954 626.584 208.965 626.001 209.442 625.036L215.046 613.701M203.904 637.07L220.07 627.736C221.345 627 221.782 625.369 221.046 624.094L214.379 612.547C213.643 611.271 212.012 610.834 210.737 611.571L194.571 620.904C193.295 621.64 192.858 623.271 193.595 624.547L200.261 636.094C200.998 637.369 202.629 637.806 203.904 637.07Z" stroke="currentColor" stroke-width="2" stroke-linecap="round" stroke-linejoin="round"/>
</g>
<g clip-path="url(#clip5_2072_395)">
<path d="M292.261 106.343L304.88 107.156C305.954 107.226 306.965 106.642 307.442 105.677L313.046 94.3425M301.904 117.711L318.07 108.378C319.345 107.641 319.782 106.01 319.046 104.735L312.379 93.1878C311.643 91.9124 310.012 91.4754 308.737 92.2118L292.571 101.545C291.295 102.281 290.858 103.912 291.595 105.188L298.261 116.735C298.998 118.01 300.629 118.447 301.904 117.711Z" stroke="currentColor" stroke-width="2" stroke-linecap="round" stroke-linejoin="round"/>
</g>
<g clip-path="url(#clip6_2072_395)">
<path d="M284.261 265.701L296.88 266.515C297.954 266.584 298.965 266.001 299.442 265.036L305.046 253.701M293.904 277.07L310.07 267.736C311.345 267 311.782 265.369 311.046 264.094L304.379 252.547C303.643 251.271 302.012 250.834 300.737 251.571L284.571 260.904C283.295 261.64 282.858 263.271 283.595 264.547L290.261 276.094C290.998 277.369 292.629 277.806 293.904 277.07Z" stroke="currentColor" stroke-width="2" stroke-linecap="round" stroke-linejoin="round"/>
</g>
<g clip-path="url(#clip7_2072_395)">
<path d="M85.7974 58.9167L98.4156 59.7305C99.4899 59.7998 100.501 59.2163 100.978 58.2513L106.582 46.9167M95.4402 70.2851L111.606 60.9518C112.881 60.2154 113.318 58.5845 112.582 57.309L105.915 45.762C105.179 44.4866 103.548 44.0496 102.273 44.786L86.1068 54.1193C84.8314 54.8557 84.3944 56.4866 85.1308 57.762L91.7974 69.309C92.5338 70.5845 94.1647 71.0215 95.4402 70.2851Z" stroke="currentColor" stroke-width="2" stroke-linecap="round" stroke-linejoin="round"/>
</g>
<g clip-path="url(#clip8_2072_395)">
<path d="M203.294 242.794C195.292 244.938 190.543 253.163 192.687 261.165L202.06 296.145L237.039 286.772C245.041 284.628 249.79 276.403 247.646 268.401C245.502 260.399 237.277 255.65 229.275 257.794L223.273 259.403L221.665 253.401C219.521 245.399 211.296 240.65 203.294 242.794Z" stroke="currentColor" stroke-width="2" stroke-linecap="round" stroke-linejoin="round"/>
</g>
<g clip-path="url(#clip9_2072_395)">
<path d="M178.079 402.579C170.077 404.723 165.328 412.948 167.472 420.95L176.845 455.93L211.824 446.557C219.826 444.413 224.575 436.187 222.43 428.185C220.286 420.183 212.061 415.435 204.059 417.579L198.058 419.187L196.45 413.185C194.306 405.183 186.081 400.435 178.079 402.579Z" stroke="currentColor" stroke-width="2" stroke-linecap="round" stroke-linejoin="round"/>
</g>
<g clip-path="url(#clip10_2072_395)">
<path d="M57.935 584.435C49.933 586.579 45.1843 594.805 47.3284 602.807L56.7012 637.786L91.6804 628.413C99.6824 626.269 104.431 618.044 102.287 610.042C100.143 602.04 91.9178 597.291 83.9158 599.435L77.9144 601.044L76.3062 595.042C74.1621 587.04 65.937 582.291 57.935 584.435Z" stroke="currentColor" stroke-width="2" stroke-linecap="round" stroke-linejoin="round"/>
</g>
<g clip-path="url(#clip11_2072_395)">
<path d="M372.079 470.579C364.077 472.723 359.328 480.948 361.472 488.95L370.845 523.93L405.824 514.557C413.826 512.413 418.575 504.187 416.43 496.185C414.286 488.183 406.061 483.435 398.059 485.579L392.058 487.187L390.45 481.185C388.306 473.183 380.081 468.435 372.079 470.579Z" stroke="currentColor" stroke-width="2" stroke-linecap="round" stroke-linejoin="round"/>
</g>
<g clip-path="url(#clip12_2072_395)">
<path d="M398.079 310.579C390.077 312.723 385.328 320.948 387.472 328.95L396.845 363.93L431.824 354.557C439.826 352.413 444.575 344.187 442.43 336.185C440.286 328.183 432.061 323.435 424.059 325.579L418.058 327.187L416.45 321.185C414.306 313.183 406.081 308.435 398.079 310.579Z" stroke="currentColor" stroke-width="2" stroke-linecap="round" stroke-linejoin="round"/>
</g>
<g clip-path="url(#clip13_2072_395)">
<path d="M223.615 87.7942C215.613 89.9383 210.864 98.1634 213.008 106.165L222.381 141.145L257.36 131.772C265.362 129.628 270.111 121.403 267.967 113.401C265.822 105.399 257.597 100.65 249.595 102.794L243.594 104.403L241.986 98.4008C239.842 90.3988 231.617 85.6501 223.615 87.7942Z" stroke="currentColor" stroke-width="2" stroke-linecap="round" stroke-linejoin="round"/>
</g>
<path d="M132 238L136.586 233.414C137.367 232.633 138.633 232.633 139.414 233.414L144 238M142 236L143.586 234.414C144.367 233.633 145.633 233.633 146.414 234.414L148 236M142 230H142.01M134 242H146C147.105 242 148 241.105 148 240V228C148 226.895 147.105 226 146 226H134C132.895 226 132 226.895 132 228V240C132 241.105 132.895 242 134 242Z" stroke="currentColor" stroke-width="2" stroke-linecap="round" stroke-linejoin="round"/>
<path d="M106.785 397.785L111.37 393.199C112.151 392.418 113.418 392.418 114.199 393.199L118.785 397.785M116.785 395.785L118.37 394.199C119.151 393.418 120.418 393.418 121.199 394.199L122.785 395.785M116.785 389.785H116.795M108.785 401.785H120.785C121.889 401.785 122.785 400.889 122.785 399.785V387.785C122.785 386.68 121.889 385.785 120.785 385.785H108.785C107.68 385.785 106.785 386.68 106.785 387.785V399.785C106.785 400.889 107.68 401.785 108.785 401.785Z" stroke="currentColor" stroke-width="2" stroke-linecap="round" stroke-linejoin="round"/>
<path d="M300.785 465.785L305.37 461.199C306.151 460.418 307.418 460.418 308.199 461.199L312.785 465.785M310.785 463.785L312.37 462.199C313.151 461.418 314.418 461.418 315.199 462.199L316.785 463.785M310.785 457.785H310.795M302.785 469.785H314.785C315.889 469.785 316.785 468.889 316.785 467.785V455.785C316.785 454.68 315.889 453.785 314.785 453.785H302.785C301.68 453.785 300.785 454.68 300.785 455.785V467.785C300.785 468.889 301.68 469.785 302.785 469.785Z" stroke="currentColor" stroke-width="2" stroke-linecap="round" stroke-linejoin="round"/>
<path d="M334.785 146.426L339.37 141.84C340.151 141.059 341.418 141.059 342.199 141.84L346.785 146.426M344.785 144.426L346.37 142.84C347.151 142.059 348.418 142.059 349.199 142.84L350.785 144.426M344.785 138.426H344.795M336.785 150.426H348.785C349.889 150.426 350.785 149.53 350.785 148.426V136.426C350.785 135.321 349.889 134.426 348.785 134.426H336.785C335.68 134.426 334.785 135.321 334.785 136.426V148.426C334.785 149.53 335.68 150.426 336.785 150.426Z" stroke="currentColor" stroke-width="2" stroke-linecap="round" stroke-linejoin="round"/>
<path d="M326.785 305.785L331.37 301.199C332.151 300.418 333.418 300.418 334.199 301.199L338.785 305.785M336.785 303.785L338.37 302.199C339.151 301.418 340.418 301.418 341.199 302.199L342.785 303.785M336.785 297.785H336.795M328.785 309.785H340.785C341.889 309.785 342.785 308.889 342.785 307.785V295.785C342.785 294.68 341.889 293.785 340.785 293.785H328.785C327.68 293.785 326.785 294.68 326.785 295.785V307.785C326.785 308.889 327.68 309.785 328.785 309.785Z" stroke="currentColor" stroke-width="2" stroke-linecap="round" stroke-linejoin="round"/>
<path d="M128.321 99L132.907 94.4142C133.688 93.6332 134.954 93.6332 135.735 94.4142L140.321 99M138.321 97L139.907 95.4142C140.688 94.6332 141.954 94.6332 142.735 95.4142L144.321 97M138.321 91H138.331M130.321 103H142.321C143.425 103 144.321 102.105 144.321 101V89C144.321 87.8954 143.425 87 142.321 87H130.321C129.216 87 128.321 87.8954 128.321 89V101C128.321 102.105 129.216 103 130.321 103Z" stroke="currentColor" stroke-width="2" stroke-linecap="round" stroke-linejoin="round"/>
<g clip-path="url(#clip14_2072_395)">
<path d="M175.049 130.927C175.348 130.005 176.652 130.005 176.951 130.927L182.961 149.42C183.094 149.832 183.478 150.111 183.912 150.111L203.357 150.111C204.325 150.111 204.728 151.351 203.944 151.92L188.213 163.35C187.863 163.605 187.716 164.056 187.85 164.468L193.858 182.962C194.158 183.883 193.103 184.649 192.319 184.08L176.588 172.651C176.237 172.396 175.763 172.396 175.412 172.651L159.681 184.08C158.897 184.649 157.842 183.883 158.142 182.962L164.15 164.468C164.284 164.056 164.137 163.605 163.787 163.35L148.056 151.92C147.272 151.351 147.675 150.111 148.643 150.111L168.088 150.111C168.522 150.111 168.906 149.832 169.039 149.42L175.049 130.927Z" stroke="currentColor" stroke-width="2"/>
</g>
<g clip-path="url(#clip15_2072_395)">
<path d="M149.834 290.711C150.133 289.79 151.436 289.79 151.736 290.711L157.745 309.204C157.879 309.616 158.263 309.895 158.696 309.895L178.141 309.896C179.11 309.896 179.513 311.136 178.729 311.705L162.998 323.135C162.648 323.39 162.501 323.841 162.635 324.253L168.643 342.747C168.942 343.668 167.888 344.434 167.104 343.865L151.372 332.436C151.022 332.181 150.547 332.181 150.197 332.436L134.465 343.865C133.681 344.434 132.627 343.668 132.926 342.747L138.934 324.253C139.068 323.841 138.922 323.39 138.571 323.135L122.84 311.705C122.057 311.136 122.459 309.896 123.428 309.896L142.873 309.895C143.306 309.895 143.69 309.616 143.824 309.204L149.834 290.711Z" stroke="currentColor" stroke-width="2"/>
</g>
<g clip-path="url(#clip16_2072_395)">
<path d="M343.834 358.711C344.133 357.79 345.436 357.79 345.736 358.711L351.745 377.204C351.879 377.616 352.263 377.895 352.696 377.895L372.141 377.896C373.11 377.896 373.513 379.136 372.729 379.705L356.998 391.135C356.648 391.39 356.501 391.841 356.635 392.253L362.643 410.747C362.942 411.668 361.888 412.434 361.104 411.865L345.372 400.436C345.022 400.181 344.547 400.181 344.197 400.436L328.465 411.865C327.681 412.434 326.627 411.668 326.926 410.747L332.934 392.253C333.068 391.841 332.922 391.39 332.571 391.135L316.84 379.705C316.057 379.136 316.459 377.896 317.428 377.896L336.873 377.895C337.306 377.895 337.69 377.616 337.824 377.204L343.834 358.711Z" stroke="currentColor" stroke-width="2"/>
</g>
<g clip-path="url(#clip17_2072_395)">
<path d="M377.834 39.3524C378.133 38.4312 379.436 38.4312 379.736 39.3524L385.745 57.8454C385.879 58.2574 386.263 58.5364 386.696 58.5364L406.141 58.5371C407.11 58.5372 407.513 59.7767 406.729 60.3461L390.998 71.7762C390.648 72.0308 390.501 72.4821 390.635 72.8941L396.643 91.3876C396.942 92.3089 395.888 93.075 395.104 92.5056L379.372 81.0768C379.022 80.8222 378.547 80.8222 378.197 81.0768L362.465 92.5056C361.681 93.075 360.627 92.3089 360.926 91.3876L366.934 72.8941C367.068 72.4821 366.922 72.0308 366.571 71.7762L350.84 60.3461C350.057 59.7767 350.459 58.5372 351.428 58.5371L370.873 58.5364C371.306 58.5364 371.69 58.2574 371.824 57.8454L377.834 39.3524Z" stroke="currentColor" stroke-width="2"/>
</g>
<g clip-path="url(#clip18_2072_395)">
<path d="M369.834 198.711C370.133 197.79 371.436 197.79 371.736 198.711L377.745 217.204C377.879 217.616 378.263 217.895 378.696 217.895L398.141 217.896C399.11 217.896 399.513 219.136 398.729 219.705L382.998 231.135C382.648 231.39 382.501 231.841 382.635 232.253L388.643 250.747C388.942 251.668 387.888 252.434 387.104 251.865L371.372 240.436C371.022 240.181 370.547 240.181 370.197 240.436L354.465 251.865C353.681 252.434 352.627 251.668 352.926 250.747L358.934 232.253C359.068 231.841 358.922 231.39 358.571 231.135L342.84 219.705C342.057 219.136 342.459 217.896 343.428 217.896L362.873 217.895C363.306 217.895 363.69 217.616 363.824 217.204L369.834 198.711Z" stroke="currentColor" stroke-width="2"/>
</g>
<g clip-path="url(#clip19_2072_395)">
<path d="M171.37 -8.07336C171.669 -8.99462 172.972 -8.99462 173.272 -8.07336L179.281 10.4197C179.415 10.8316 179.799 11.1106 180.232 11.1106L199.677 11.1113C200.646 11.1114 201.049 12.3509 200.265 12.9203L184.534 24.3504C184.184 24.605 184.037 25.0564 184.171 25.4684L190.179 43.9618C190.478 44.8831 189.424 45.6492 188.64 45.0799L172.909 33.651C172.558 33.3964 172.084 33.3964 171.733 33.651L156.001 45.0799C155.218 45.6492 154.163 44.8831 154.462 43.9618L160.471 25.4684C160.604 25.0564 160.458 24.605 160.107 24.3504L144.377 12.9203C143.593 12.3509 143.996 11.1114 144.964 11.1113L164.409 11.1106C164.842 11.1106 165.226 10.8316 165.36 10.4197L171.37 -8.07336Z" stroke="currentColor" stroke-width="2"/>
</g>
<g clip-path="url(#clip20_2072_395)">
<path d="M243.134 170.572C243.686 169.615 244.909 169.288 245.866 169.84C246.823 170.392 247.15 171.615 246.598 172.572L246.098 173.438C245.822 173.916 245.986 174.528 246.464 174.804L249.062 176.304C249.54 176.58 249.704 177.192 249.428 177.67L247.928 180.268C247.652 180.746 247.04 180.91 246.562 180.634L245.696 180.134C244.74 179.582 243.516 179.91 242.964 180.866C242.412 181.823 242.74 183.046 243.696 183.598L244.562 184.098C245.04 184.374 245.204 184.986 244.928 185.464L243.428 188.062C243.152 188.541 242.54 188.704 242.062 188.428L239.464 186.928C238.986 186.652 238.822 186.041 239.098 185.562L239.598 184.696C240.15 183.74 239.823 182.516 238.866 181.964C237.909 181.412 236.686 181.74 236.134 182.696L235.634 183.562C235.358 184.041 234.746 184.204 234.268 183.928L231.67 182.428C231.192 182.152 231.028 181.541 231.304 181.062L232.804 178.464C233.08 177.986 232.916 177.374 232.438 177.098L231.572 176.598C230.615 176.046 230.287 174.823 230.84 173.866C231.392 172.91 232.615 172.582 233.572 173.134L234.438 173.634C234.916 173.91 235.528 173.746 235.804 173.268L237.304 170.67C237.58 170.192 238.192 170.028 238.67 170.304L241.268 171.804C241.746 172.08 242.358 171.916 242.634 171.438L243.134 170.572Z" stroke="currentColor" stroke-width="2" stroke-linecap="round" stroke-linejoin="round"/>
</g>
<g clip-path="url(#clip21_2072_395)">
<path d="M217.918 330.357C218.471 329.4 219.694 329.072 220.651 329.625C221.607 330.177 221.935 331.4 221.383 332.357L220.883 333.223C220.606 333.701 220.77 334.312 221.249 334.589L223.847 336.089C224.325 336.365 224.489 336.976 224.213 337.455L222.713 340.053C222.437 340.531 221.825 340.695 221.347 340.419L220.481 339.919C219.524 339.366 218.301 339.694 217.749 340.651C217.196 341.607 217.524 342.831 218.481 343.383L219.347 343.883C219.825 344.159 219.989 344.771 219.713 345.249L218.213 347.847C217.937 348.325 217.325 348.489 216.847 348.213L214.249 346.713C213.77 346.437 213.606 345.825 213.883 345.347L214.383 344.481C214.935 343.524 214.607 342.301 213.651 341.749C212.694 341.197 211.471 341.524 210.918 342.481L210.418 343.347C210.142 343.825 209.531 343.989 209.052 343.713L206.454 342.213C205.976 341.937 205.812 341.325 206.088 340.847L207.588 338.249C207.865 337.771 207.701 337.159 207.222 336.883L206.356 336.383C205.4 335.831 205.072 334.607 205.624 333.651C206.177 332.694 207.4 332.366 208.356 332.919L209.222 333.419C209.701 333.695 210.312 333.531 210.588 333.053L212.088 330.455C212.365 329.976 212.976 329.812 213.454 330.089L216.052 331.589C216.531 331.865 217.142 331.701 217.418 331.223L217.918 330.357Z" stroke="currentColor" stroke-width="2" stroke-linecap="round" stroke-linejoin="round"/>
</g>
<g clip-path="url(#clip22_2072_395)">
<path d="M239.455 31.5719C240.007 30.6153 241.23 30.2876 242.187 30.8398C243.143 31.3921 243.471 32.6153 242.919 33.5719L242.419 34.4379C242.142 34.9162 242.306 35.5278 242.785 35.8039L245.383 37.3039C245.861 37.5801 246.025 38.1917 245.749 38.67L244.249 41.268C243.973 41.7463 243.361 41.9102 242.883 41.6341L242.017 41.1341C241.06 40.5818 239.837 40.9095 239.285 41.8661C238.732 42.8227 239.06 44.0459 240.017 44.5982L240.883 45.0982C241.361 45.3743 241.525 45.9859 241.249 46.4642L239.749 49.0623C239.473 49.5406 238.861 49.7044 238.383 49.4283L235.785 47.9283C235.306 47.6522 235.142 47.0406 235.419 46.5623L235.919 45.6962C236.471 44.7397 236.143 43.5165 235.187 42.9642C234.23 42.4119 233.007 42.7397 232.455 43.6962L231.955 44.5623C231.678 45.0406 231.067 45.2044 230.588 44.9283L227.99 43.4283C227.512 43.1522 227.348 42.5406 227.624 42.0623L229.124 39.4642C229.401 38.9859 229.237 38.3743 228.758 38.0982L227.892 37.5982C226.936 37.0459 226.608 35.8227 227.16 34.8661C227.713 33.9095 228.936 33.5818 229.892 34.1341L230.758 34.6341C231.237 34.9102 231.848 34.7463 232.124 34.268L233.624 31.67C233.901 31.1917 234.512 31.0278 234.99 31.3039L237.588 32.8039C238.067 33.0801 238.678 32.9162 238.955 32.4379L239.455 31.5719Z" stroke="currentColor" stroke-width="2" stroke-linecap="round" stroke-linejoin="round"/>
</g>
<g clip-path="url(#clip23_2072_395)">
<path d="M85 132.072L98 154.588M85 132.072C85 132.072 83.5073 129.486 83 128.608C81.8955 126.694 82.551 124.248 84.4641 123.143C86.3773 122.039 88.8237 122.694 89.9282 124.608C91.0328 126.521 90.3773 128.967 88.4641 130.072C87.4295 130.669 85 132.072 85 132.072ZM85 132.072C85 132.072 83.063 128.716 82.5 127.742C81.1193 125.35 78.0614 124.531 75.6699 125.911C73.2785 127.292 72.4591 130.35 73.8398 132.742C75.2205 135.133 78.2785 135.952 80.6699 134.572C82.0864 133.754 85 132.072 85 132.072ZM76.8757 146L101.124 132M76.8757 146C74.9625 147.104 72.5162 146.449 71.4116 144.536C70.307 142.623 70.9625 140.176 72.8757 139.072L97.1244 125.072C99.0376 123.967 101.484 124.623 102.589 126.536C103.693 128.449 103.038 130.895 101.124 132M76.8757 146L83.8757 158.124C84.9803 160.037 87.4266 160.693 89.3398 159.588L106.66 149.588C108.573 148.484 109.229 146.037 108.124 144.124L101.124 132" stroke="currentColor" stroke-width="2" stroke-linecap="round" stroke-linejoin="round"/>
</g>
<g clip-path="url(#clip24_2072_395)">
<path d="M59.7846 291.856L72.7846 314.373M59.7846 291.856C59.7846 291.856 58.2918 289.271 57.7846 288.392C56.68 286.479 57.3355 284.033 59.2487 282.928C61.1619 281.824 63.6082 282.479 64.7128 284.392C65.8174 286.305 65.1619 288.752 63.2487 289.856C62.2141 290.454 59.7846 291.856 59.7846 291.856ZM59.7846 291.856C59.7846 291.856 57.8475 288.501 57.2846 287.526C55.9039 285.135 52.8459 284.315 50.4545 285.696C48.063 287.077 47.2436 290.135 48.6243 292.526C50.0051 294.918 53.063 295.737 55.4545 294.356C56.8709 293.538 59.7846 291.856 59.7846 291.856ZM51.6602 305.785L75.9089 291.785M51.6602 305.785C49.7471 306.889 47.3007 306.234 46.1961 304.32C45.0916 302.407 45.7471 299.961 47.6602 298.856L71.9089 284.856C73.8221 283.752 76.2685 284.407 77.373 286.32C78.4776 288.234 77.8221 290.68 75.9089 291.785M51.6602 305.785L58.6602 317.909C59.7648 319.822 62.2112 320.478 64.1243 319.373L81.4448 309.373C83.358 308.268 84.0135 305.822 82.9089 303.909L75.9089 291.785" stroke="currentColor" stroke-width="2" stroke-linecap="round" stroke-linejoin="round"/>
</g>
<g clip-path="url(#clip25_2072_395)">
<path d="M253.785 359.856L266.785 382.373M253.785 359.856C253.785 359.856 252.292 357.271 251.785 356.392C250.68 354.479 251.336 352.033 253.249 350.928C255.162 349.824 257.608 350.479 258.713 352.392C259.817 354.305 259.162 356.752 257.249 357.856C256.214 358.454 253.785 359.856 253.785 359.856ZM253.785 359.856C253.785 359.856 251.848 356.501 251.285 355.526C249.904 353.135 246.846 352.315 244.454 353.696C242.063 355.077 241.244 358.135 242.624 360.526C244.005 362.918 247.063 363.737 249.454 362.356C250.871 361.538 253.785 359.856 253.785 359.856ZM245.66 373.785L269.909 359.785M245.66 373.785C243.747 374.889 241.301 374.234 240.196 372.32C239.092 370.407 239.747 367.961 241.66 366.856L265.909 352.856C267.822 351.752 270.269 352.407 271.373 354.32C272.478 356.234 271.822 358.68 269.909 359.785M245.66 373.785L252.66 385.909C253.765 387.822 256.211 388.478 258.124 387.373L275.445 377.373C277.358 376.268 278.014 373.822 276.909 371.909L269.909 359.785" stroke="currentColor" stroke-width="2" stroke-linecap="round" stroke-linejoin="round"/>
</g>
<g clip-path="url(#clip26_2072_395)">
<path d="M287.785 40.4974L300.785 63.0141M287.785 40.4974C287.785 40.4974 286.292 37.9118 285.785 37.0333C284.68 35.1201 285.336 32.6738 287.249 31.5692C289.162 30.4646 291.608 31.1201 292.713 33.0333C293.817 34.9465 293.162 37.3928 291.249 38.4974C290.214 39.0948 287.785 40.4974 287.785 40.4974ZM287.785 40.4974C287.785 40.4974 285.848 37.1423 285.285 36.1673C283.904 33.7758 280.846 32.9564 278.454 34.3372C276.063 35.7179 275.244 38.7758 276.624 41.1673C278.005 43.5587 281.063 44.3781 283.454 42.9974C284.871 42.1796 287.785 40.4974 287.785 40.4974ZM279.66 54.4256L303.909 40.4256M279.66 54.4256C277.747 55.5302 275.301 54.8747 274.196 52.9615C273.092 51.0483 273.747 48.602 275.66 47.4974L299.909 33.4974C301.822 32.3928 304.269 33.0483 305.373 34.9615C306.478 36.8747 305.822 39.321 303.909 40.4256M279.66 54.4256L286.66 66.55C287.765 68.4631 290.211 69.1186 292.124 68.0141L309.445 58.0141C311.358 56.9095 312.014 54.4631 310.909 52.55L303.909 40.4256" stroke="currentColor" stroke-width="2" stroke-linecap="round" stroke-linejoin="round"/>
</g>
<g clip-path="url(#clip27_2072_395)">
<path d="M279.785 199.856L292.785 222.373M279.785 199.856C279.785 199.856 278.292 197.271 277.785 196.392C276.68 194.479 277.336 192.033 279.249 190.928C281.162 189.824 283.608 190.479 284.713 192.392C285.817 194.305 285.162 196.752 283.249 197.856C282.214 198.454 279.785 199.856 279.785 199.856ZM279.785 199.856C279.785 199.856 277.848 196.501 277.285 195.526C275.904 193.135 272.846 192.315 270.454 193.696C268.063 195.077 267.244 198.135 268.624 200.526C270.005 202.918 273.063 203.737 275.454 202.356C276.871 201.538 279.785 199.856 279.785 199.856ZM271.66 213.785L295.909 199.785M271.66 213.785C269.747 214.889 267.301 214.234 266.196 212.32C265.092 210.407 265.747 207.961 267.66 206.856L291.909 192.856C293.822 191.752 296.269 192.407 297.373 194.32C298.478 196.234 297.822 198.68 295.909 199.785M271.66 213.785L278.66 225.909C279.765 227.822 282.211 228.478 284.124 227.373L301.445 217.373C303.358 216.268 304.014 213.822 302.909 211.909L295.909 199.785" stroke="currentColor" stroke-width="2" stroke-linecap="round" stroke-linejoin="round"/>
</g>
<g clip-path="url(#clip28_2072_395)">
<path d="M63.7846 -24.1437L76.7846 -1.62704M63.7846 -24.1437C63.7846 -24.1437 62.2918 -26.7293 61.7846 -27.6078C60.68 -29.521 61.3355 -31.9673 63.2487 -33.0719C65.1619 -34.1765 67.6082 -33.521 68.7128 -31.6078C69.8174 -29.6946 69.1619 -27.2483 67.2487 -26.1437C66.2141 -25.5464 63.7846 -24.1437 63.7846 -24.1437ZM63.7846 -24.1437C63.7846 -24.1437 61.8475 -27.4988 61.2846 -28.4738C59.9039 -30.8653 56.8459 -31.6847 54.4545 -30.304C52.063 -28.9232 51.2436 -25.8653 52.6243 -23.4738C54.0051 -21.0824 57.063 -20.263 59.4545 -21.6437C60.8709 -22.4615 63.7846 -24.1437 63.7846 -24.1437ZM55.6602 -10.2155L79.9089 -24.2155M55.6602 -10.2155C53.7471 -9.11093 51.3007 -9.76643 50.1961 -11.6796C49.0916 -13.5928 49.7471 -16.0391 51.6602 -17.1437L75.9089 -31.1437C77.8221 -32.2483 80.2685 -31.5928 81.373 -29.6796C82.4776 -27.7664 81.8221 -25.3201 79.9089 -24.2155M55.6602 -10.2155L62.6602 1.90885C63.7648 3.82202 66.2112 4.47752 68.1243 3.37296L85.4448 -6.62704C87.358 -7.73161 88.0135 -10.178 86.9089 -12.0911L79.9089 -24.2155" stroke="currentColor" stroke-width="2" stroke-linecap="round" stroke-linejoin="round"/>
</g>
<g clip-path="url(#clip29_2072_395)">
<path d="M241.261 583.701L253.88 584.515C254.954 584.584 255.964 584.001 256.442 583.036L262.046 571.701M250.904 595.07L267.07 585.736C268.345 585 268.782 583.369 268.046 582.094L261.379 570.547C260.643 569.271 259.012 568.834 257.737 569.571L241.571 578.904C240.295 579.64 239.858 581.271 240.595 582.547L247.261 594.094C247.998 595.369 249.629 595.806 250.904 595.07Z" stroke="currentColor" stroke-width="2" stroke-linecap="round" stroke-linejoin="round"/>
</g>
<g clip-path="url(#clip30_2072_395)">
<path d="M141.935 538.435C133.933 540.579 129.184 548.805 131.328 556.807L140.701 591.786L175.68 582.413C183.682 580.269 188.431 572.044 186.287 564.042C184.143 556.04 175.918 551.291 167.916 553.435L161.914 555.044L160.306 549.042C158.162 541.04 149.937 536.291 141.935 538.435Z" stroke="currentColor" stroke-width="2" stroke-linecap="round" stroke-linejoin="round"/>
</g>
<g clip-path="url(#clip31_2072_395)">
<path d="M355.079 628.579C347.077 630.723 342.328 638.948 344.472 646.95L353.845 681.93L388.824 672.557C396.826 670.413 401.575 662.187 399.43 654.185C397.286 646.183 389.061 641.435 381.059 643.579L375.058 645.187L373.45 639.185C371.306 631.183 363.081 626.435 355.079 628.579Z" stroke="currentColor" stroke-width="2" stroke-linecap="round" stroke-linejoin="round"/>
</g>
<path d="M75.7847 551.785L80.3705 547.199C81.1515 546.418 82.4178 546.418 83.1989 547.199L87.7847 551.785M85.7847 549.785L87.3705 548.199C88.1515 547.418 89.4178 547.418 90.1989 548.199L91.7847 549.785M85.7847 543.785H85.7947M77.7847 555.785H89.7847C90.8892 555.785 91.7847 554.889 91.7847 553.785V541.785C91.7847 540.68 90.8892 539.785 89.7847 539.785H77.7847C76.6801 539.785 75.7847 540.68 75.7847 541.785V553.785C75.7847 554.889 76.6801 555.785 77.7847 555.785Z" stroke="currentColor" stroke-width="2" stroke-linecap="round" stroke-linejoin="round"/>
<path d="M283.785 623.785L288.37 619.199C289.152 618.418 290.418 618.418 291.199 619.199L295.785 623.785M293.785 621.785L295.37 620.199C296.152 619.418 297.418 619.418 298.199 620.199L299.785 621.785M293.785 615.785H293.795M285.785 627.785H297.785C298.889 627.785 299.785 626.889 299.785 625.785V613.785C299.785 612.68 298.889 611.785 297.785 611.785H285.785C284.68 611.785 283.785 612.68 283.785 613.785V625.785C283.785 626.889 284.68 627.785 285.785 627.785Z" stroke="currentColor" stroke-width="2" stroke-linecap="round" stroke-linejoin="round"/>
<g clip-path="url(#clip32_2072_395)">
<path d="M118.834 444.711C119.133 443.79 120.436 443.79 120.736 444.711L126.745 463.204C126.879 463.616 127.263 463.895 127.696 463.895L147.141 463.896C148.11 463.896 148.513 465.136 147.729 465.705L131.998 477.135C131.648 477.39 131.501 477.841 131.635 478.253L137.643 496.747C137.942 497.668 136.888 498.434 136.104 497.865L120.372 486.436C120.022 486.181 119.547 486.181 119.197 486.436L103.465 497.865C102.681 498.434 101.627 497.668 101.926 496.747L107.934 478.253C108.068 477.841 107.922 477.39 107.571 477.135L91.8404 465.705C91.0567 465.136 91.4595 463.896 92.4281 463.896L111.873 463.895C112.306 463.895 112.69 463.616 112.824 463.204L118.834 444.711Z" stroke="currentColor" stroke-width="2"/>
</g>
<g clip-path="url(#clip33_2072_395)">
<path d="M326.834 516.711C327.133 515.79 328.436 515.79 328.736 516.711L334.745 535.204C334.879 535.616 335.263 535.895 335.696 535.895L355.141 535.896C356.11 535.896 356.513 537.136 355.729 537.705L339.998 549.135C339.648 549.39 339.501 549.841 339.635 550.253L345.643 568.747C345.942 569.668 344.888 570.434 344.104 569.865L328.372 558.436C328.022 558.181 327.547 558.181 327.197 558.436L311.465 569.865C310.681 570.434 309.627 569.668 309.926 568.747L315.934 550.253C316.068 549.841 315.922 549.39 315.571 549.135L299.84 537.705C299.057 537.136 299.459 535.896 300.428 535.896L319.873 535.895C320.306 535.895 320.69 535.616 320.824 535.204L326.834 516.711Z" stroke="currentColor" stroke-width="2"/>
</g>
<g clip-path="url(#clip34_2072_395)">
<path d="M186.918 484.357C187.471 483.4 188.694 483.072 189.65 483.625C190.607 484.177 190.935 485.4 190.382 486.357L189.882 487.223C189.606 487.701 189.77 488.312 190.249 488.589L192.847 490.089C193.325 490.365 193.489 490.976 193.213 491.455L191.713 494.053C191.436 494.531 190.825 494.695 190.347 494.419L189.481 493.919C188.524 493.366 187.301 493.694 186.749 494.651C186.196 495.607 186.524 496.831 187.481 497.383L188.347 497.883C188.825 498.159 188.989 498.771 188.713 499.249L187.213 501.847C186.936 502.325 186.325 502.489 185.847 502.213L183.249 500.713C182.77 500.437 182.606 499.825 182.882 499.347L183.382 498.481C183.935 497.524 183.607 496.301 182.65 495.749C181.694 495.197 180.471 495.524 179.918 496.481L179.418 497.347C179.142 497.825 178.531 497.989 178.052 497.713L175.454 496.213C174.976 495.937 174.812 495.325 175.088 494.847L176.588 492.249C176.864 491.771 176.701 491.159 176.222 490.883L175.356 490.383C174.4 489.831 174.072 488.607 174.624 487.651C175.176 486.694 176.4 486.366 177.356 486.919L178.222 487.419C178.701 487.695 179.312 487.531 179.588 487.053L181.088 484.455C181.364 483.976 181.976 483.812 182.454 484.089L185.052 485.589C185.531 485.865 186.142 485.701 186.418 485.223L186.918 484.357Z" stroke="currentColor" stroke-width="2" stroke-linecap="round" stroke-linejoin="round"/>
</g>
<g clip-path="url(#clip35_2072_395)">
<path d="M28.7846 445.856L41.7846 468.373M28.7846 445.856C28.7846 445.856 27.2918 443.271 26.7846 442.392C25.68 440.479 26.3355 438.033 28.2487 436.928C30.1619 435.824 32.6082 436.479 33.7128 438.392C34.8174 440.305 34.1619 442.752 32.2487 443.856C31.2141 444.454 28.7846 445.856 28.7846 445.856ZM28.7846 445.856C28.7846 445.856 26.8475 442.501 26.2846 441.526C24.9039 439.135 21.8459 438.315 19.4545 439.696C17.063 441.077 16.2436 444.135 17.6243 446.526C19.0051 448.918 22.063 449.737 24.4545 448.356C25.8709 447.538 28.7846 445.856 28.7846 445.856ZM20.6602 459.785L44.9089 445.785M20.6602 459.785C18.7471 460.889 16.3007 460.234 15.1961 458.32C14.0916 456.407 14.7471 453.961 16.6602 452.856L40.9089 438.856C42.8221 437.752 45.2685 438.407 46.373 440.32C47.4776 442.234 46.8221 444.68 44.9089 445.785M20.6602 459.785L27.6602 471.909C28.7648 473.822 31.2112 474.478 33.1243 473.373L50.4448 463.373C52.358 462.268 53.0135 459.822 51.9089 457.909L44.9089 445.785" stroke="currentColor" stroke-width="2" stroke-linecap="round" stroke-linejoin="round"/>
</g>
<g clip-path="url(#clip36_2072_395)">
<path d="M236.785 517.856L249.785 540.373M236.785 517.856C236.785 517.856 235.292 515.271 234.785 514.392C233.68 512.479 234.336 510.033 236.249 508.928C238.162 507.824 240.608 508.479 241.713 510.392C242.817 512.305 242.162 514.752 240.249 515.856C239.214 516.454 236.785 517.856 236.785 517.856ZM236.785 517.856C236.785 517.856 234.848 514.501 234.285 513.526C232.904 511.135 229.846 510.315 227.454 511.696C225.063 513.077 224.244 516.135 225.624 518.526C227.005 520.918 230.063 521.737 232.454 520.356C233.871 519.538 236.785 517.856 236.785 517.856ZM228.66 531.785L252.909 517.785M228.66 531.785C226.747 532.889 224.301 532.234 223.196 530.32C222.092 528.407 222.747 525.961 224.66 524.856L248.909 510.856C250.822 509.752 253.269 510.407 254.373 512.32C255.478 514.234 254.822 516.68 252.909 517.785M228.66 531.785L235.66 543.909C236.765 545.822 239.211 546.478 241.124 545.373L258.445 535.373C260.358 534.268 261.014 531.822 259.909 529.909L252.909 517.785" stroke="currentColor" stroke-width="2" stroke-linecap="round" stroke-linejoin="round"/>
</g>
<g clip-path="url(#clip37_2072_395)">
<path d="M132.785 669.856L145.785 692.373M132.785 669.856C132.785 669.856 131.292 667.271 130.785 666.392C129.68 664.479 130.336 662.033 132.249 660.928C134.162 659.824 136.608 660.479 137.713 662.392C138.817 664.305 138.162 666.752 136.249 667.856C135.214 668.454 132.785 669.856 132.785 669.856ZM132.785 669.856C132.785 669.856 130.848 666.501 130.285 665.526C128.904 663.135 125.846 662.315 123.454 663.696C121.063 665.077 120.244 668.135 121.624 670.526C123.005 672.918 126.063 673.737 128.454 672.356C129.871 671.538 132.785 669.856 132.785 669.856ZM124.66 683.785L148.909 669.785M124.66 683.785C122.747 684.889 120.301 684.234 119.196 682.32C118.092 680.407 118.747 677.961 120.66 676.856L144.909 662.856C146.822 661.752 149.269 662.407 150.373 664.32C151.478 666.234 150.822 668.68 148.909 669.785M124.66 683.785L131.66 695.909C132.765 697.822 135.211 698.478 137.124 697.373L154.445 687.373C156.358 686.268 157.014 683.822 155.909 681.909L148.909 669.785" stroke="currentColor" stroke-width="2" stroke-linecap="round" stroke-linejoin="round"/>
</g>
<circle cx="262" cy="478" r="9" stroke="currentColor" stroke-width="2"/>
<circle cx="184" cy="371" r="9" stroke="currentColor" stroke-width="2"/>
<circle cx="110" cy="266" r="9" stroke="currentColor" stroke-width="2"/>
<circle cx="180" cy="74" r="9" stroke="currentColor" stroke-width="2"/>
<circle cx="281" cy="315" r="9" stroke="currentColor" stroke-width="2"/>
<circle cx="364" cy="442" r="9" stroke="currentColor" stroke-width="2"/>
<circle cx="88" cy="426" r="9" stroke="currentColor" stroke-width="2"/>
<circle cx="344" cy="30" r="9" stroke="currentColor" stroke-width="2"/>
<circle cx="212" cy="212" r="9" stroke="currentColor" stroke-width="2"/>
<circle cx="301" cy="155" r="9" stroke="currentColor" stroke-width="2"/>
</g>
<defs>
<clipPath id="clip0_2072_395">
<rect width="375" height="696" fill="white"/>
</clipPath>
<clipPath id="clip1_2072_395">
<rect width="32" height="32" fill="white" transform="translate(80.6794 190.679) rotate(-30)"/>
</clipPath>
<clipPath id="clip2_2072_395">
<rect width="32" height="32" fill="white" transform="translate(55.464 350.464) rotate(-30)"/>
</clipPath>
<clipPath id="clip3_2072_395">
<rect width="32" height="32" fill="white" transform="translate(249.464 418.464) rotate(-30)"/>
</clipPath>
<clipPath id="clip4_2072_395">
<rect width="32" height="32" fill="white" transform="translate(185.464 618.464) rotate(-30)"/>
</clipPath>
<clipPath id="clip5_2072_395">
<rect width="32" height="32" fill="white" transform="translate(283.464 99.105) rotate(-30)"/>
</clipPath>
<clipPath id="clip6_2072_395">
<rect width="32" height="32" fill="white" transform="translate(275.464 258.464) rotate(-30)"/>
</clipPath>
<clipPath id="clip7_2072_395">
<rect width="32" height="32" fill="white" transform="translate(77 51.6792) rotate(-30)"/>
</clipPath>
<clipPath id="clip8_2072_395">
<rect width="80" height="80" fill="white" transform="translate(201.359 217.359) rotate(30)"/>
</clipPath>
<clipPath id="clip9_2072_395">
<rect width="80" height="80" fill="white" transform="translate(176.144 377.144) rotate(30)"/>
</clipPath>
<clipPath id="clip10_2072_395">
<rect width="80" height="80" fill="white" transform="translate(56 559) rotate(30)"/>
</clipPath>
<clipPath id="clip11_2072_395">
<rect width="80" height="80" fill="white" transform="translate(370.144 445.144) rotate(30)"/>
</clipPath>
<clipPath id="clip12_2072_395">
<rect width="80" height="80" fill="white" transform="translate(396.144 285.144) rotate(30)"/>
</clipPath>
<clipPath id="clip13_2072_395">
<rect width="80" height="80" fill="white" transform="translate(221.68 62.3589) rotate(30)"/>
</clipPath>
<clipPath id="clip14_2072_395">
<rect width="64" height="64" fill="white" transform="translate(144 128)"/>
</clipPath>
<clipPath id="clip15_2072_395">
<rect width="64" height="64" fill="white" transform="translate(118.785 287.785)"/>
</clipPath>
<clipPath id="clip16_2072_395">
<rect width="64" height="64" fill="white" transform="translate(312.785 355.785)"/>
</clipPath>
<clipPath id="clip17_2072_395">
<rect width="64" height="64" fill="white" transform="translate(346.785 36.4258)"/>
</clipPath>
<clipPath id="clip18_2072_395">
<rect width="64" height="64" fill="white" transform="translate(338.785 195.785)"/>
</clipPath>
<clipPath id="clip19_2072_395">
<rect width="64" height="64" fill="white" transform="translate(140.321 -11)"/>
</clipPath>
<clipPath id="clip20_2072_395">
<rect width="24" height="24" fill="white" transform="translate(235.608 161.608) rotate(30)"/>
</clipPath>
<clipPath id="clip21_2072_395">
<rect width="24" height="24" fill="white" transform="translate(210.392 321.393) rotate(30)"/>
</clipPath>
<clipPath id="clip22_2072_395">
<rect width="24" height="24" fill="white" transform="translate(231.928 22.6079) rotate(30)"/>
</clipPath>
<clipPath id="clip23_2072_395">
<rect width="48" height="48" fill="white" transform="translate(56.2155 130.215) rotate(-30)"/>
</clipPath>
<clipPath id="clip24_2072_395">
<rect width="48" height="48" fill="white" transform="translate(31 290) rotate(-30)"/>
</clipPath>
<clipPath id="clip25_2072_395">
<rect width="48" height="48" fill="white" transform="translate(225 358) rotate(-30)"/>
</clipPath>
<clipPath id="clip26_2072_395">
<rect width="48" height="48" fill="white" transform="translate(259 38.6411) rotate(-30)"/>
</clipPath>
<clipPath id="clip27_2072_395">
<rect width="48" height="48" fill="white" transform="translate(251 198) rotate(-30)"/>
</clipPath>
<clipPath id="clip28_2072_395">
<rect width="48" height="48" fill="white" transform="translate(35 -26) rotate(-30)"/>
</clipPath>
<clipPath id="clip29_2072_395">
<rect width="32" height="32" fill="white" transform="translate(232.464 576.464) rotate(-30)"/>
</clipPath>
<clipPath id="clip30_2072_395">
<rect width="80" height="80" fill="white" transform="translate(140 513) rotate(30)"/>
</clipPath>
<clipPath id="clip31_2072_395">
<rect width="80" height="80" fill="white" transform="translate(353.144 603.144) rotate(30)"/>
</clipPath>
<clipPath id="clip32_2072_395">
<rect width="64" height="64" fill="white" transform="translate(87.7847 441.785)"/>
</clipPath>
<clipPath id="clip33_2072_395">
<rect width="64" height="64" fill="white" transform="translate(295.785 513.785)"/>
</clipPath>
<clipPath id="clip34_2072_395">
<rect width="24" height="24" fill="white" transform="translate(179.392 475.393) rotate(30)"/>
</clipPath>
<clipPath id="clip35_2072_395">
<rect width="48" height="48" fill="white" transform="translate(0 444) rotate(-30)"/>
</clipPath>
<clipPath id="clip36_2072_395">
<rect width="48" height="48" fill="white" transform="translate(208 516) rotate(-30)"/>
</clipPath>
<clipPath id="clip37_2072_395">
<rect width="48" height="48" fill="white" transform="translate(104 668) rotate(-30)"/>
</clipPath>
</defs>
</svg>
